inDegrees=no
num_controls=7
num_derivatives=13
num_iterations=124
num_multipliers=7
num_parameters=0
num_slacks=7
num_states=26
objective=0.497132
objective_accelerations=0.042452
objective_balance=0.003555
objective_effort=0.039779
objective_height=0.405520
objective_ligament=0.005826
solver_duration=1416.007579
status=Solve_Succeeded
success=true
DataType=double
version=3
OpenSimVersion=4.5
endheader
time	/jointset/ground_pelvis/pelvis_tilt/value	/jointset/ground_pelvis/pelvis_tx/value	/jointset/ground_pelvis/pelvis_ty/value	/jointset/hip_r/hip_flexion_r/value	/jointset/hip_r/hip_adduction_r/value	/jointset/hip_r/hip_rotation_r/value	/jointset/back/lumbar_extension/value	/jointset/patellofemoral_r/patellar_flexion_r/value	/jointset/knee_r/knee_flexion_r/value	/jointset/knee_r/knee_adduction_r/value	/jointset/knee_r/knee_rotation_r/value	/jointset/ankle_r/ankle_angle_r/value	/jointset/subtalar_r/subtalar_angle_r/value	/jointset/ground_pelvis/pelvis_tilt/speed	/jointset/ground_pelvis/pelvis_tx/speed	/jointset/ground_pelvis/pelvis_ty/speed	/jointset/hip_r/hip_flexion_r/speed	/jointset/hip_r/hip_adduction_r/speed	/jointset/hip_r/hip_rotation_r/speed	/jointset/back/lumbar_extension/speed	/jointset/patellofemoral_r/patellar_flexion_r/speed	/jointset/knee_r/knee_flexion_r/speed	/jointset/knee_r/knee_adduction_r/speed	/jointset/knee_r/knee_rotation_r/speed	/jointset/ankle_r/ankle_angle_r/speed	/jointset/subtalar_r/subtalar_angle_r/speed	/forceset/tau_hip_flexion_r	/forceset/tau_hip_adduction_r	/forceset/tau_hip_rotation_r	/forceset/tau_knee_flexion_r	/forceset/tau_ankle_angle_r	/forceset/tau_subtalar_angle_r	/forceset/tau_lumbar_extension	lambda_cid13_p0	lambda_cid14_p0	lambda_cid14_p1	lambda_cid14_p2	lambda_cid14_p3	lambda_cid14_p4	lambda_cid14_p5	/jointset/ground_pelvis/pelvis_tilt/accel	/jointset/ground_pelvis/pelvis_tx/accel	/jointset/ground_pelvis/pelvis_ty/accel	/jointset/hip_r/hip_flexion_r/accel	/jointset/hip_r/hip_adduction_r/accel	/jointset/hip_r/hip_rotation_r/accel	/jointset/back/lumbar_extension/accel	/jointset/patellofemoral_r/patellar_flexion_r/accel	/jointset/knee_r/knee_flexion_r/accel	/jointset/knee_r/knee_adduction_r/accel	/jointset/knee_r/knee_rotation_r/accel	/jointset/ankle_r/ankle_angle_r/accel	/jointset/subtalar_r/subtalar_angle_r/accel	gamma_cid13_p0	gamma_cid14_p0	gamma_cid14_p1	gamma_cid14_p2	gamma_cid14_p3	gamma_cid14_p4	gamma_cid14_p5
1.5	-0.1478947950897818	0.04402544381096916	0.8502411109338187	0.7799638980153489	-0.2406187248147959	-0.1101753177893428	-0.2883018429783657	0.7268997070541094	0.7268997070539388	0.06541774821308871	0.1745281907914388	0.2629263398464641	0.04196405552385941	0.3329788919084454	0.1549409871538826	0.4127604183688902	-1.759596043756471	0.03786599903214691	-0.4051807870551061	0.7020886377672336	-1.962910779479708	-1.962910779479766	0.1821105262341033	-9.45666243057035e-06	-0.6247436045631439	-0.1142935651223747	-0.09193891896472946	-0.01839594166297796	0.01161607116876514	-0.3345008886061191	0.06411323721060701	-0.0121030857032208	0.1400476361197657	-29.78970145938865	-20.75960020826938	-4.977116217829345	-3.217397791090041	2.351549128810416	-655.3486536319716	57.16061235877204	0.1707828178831143	0.3585238056204577	-0.545841372352685	-0.8591411853479874	0.1076536940722013	-0.3398866318035415	1.355051401415018	-1.155408638898106	-1.155408638898109	0.5272601379254717	-0.02518084604529319	-0.5604790495117455	0.05247311236500893	1.448117706327877e-07	9.17841712521801e-08	-1.461274820665219e-06	7.580521577215051e-07	9.932072741251071e-08	1.986107109859515e-07	-1.057632028467228e-06
1.51	-0.1445567349582863	0.04559255644512832	0.8543405574280004	0.7623269514642986	-0.2402354166405932	-0.1142445047138832	-0.2812145318687604	0.7072154221368703	0.7072154221367976	0.0672662666388824	0.1745282185906221	0.2566514881773045	0.04082289904432541	0.3345855264855533	0.1584554883434476	0.4070404150213435	-1.767543927375545	0.03879170405800085	-0.408628374159108	0.7152592510630867	-1.973657599513178	-1.973657599513279	0.1875907727462518	1.105434346652032e-05	-0.630133021091977	-0.1139208522275841	-0.08562798218476074	-0.02054196376496751	0.01107024717695362	-0.3308805859195286	0.06760865521915339	-0.01296939616269816	0.1342553437706944	-30.9317263295418	-19.46869702693978	-5.001771742426306	-3.356881196835658	1.935051041891439	-651.4083268703916	57.28721996532201	0.1484705277581296	0.3440266388476237	-0.598304389822282	-0.7252002395048395	0.08442518623916997	-0.342746089152712	1.280916330069403	-0.9910595190596938	-0.9910595190660512	0.5578539601321485	0.01520586355238807	-0.5140813483537853	0.03204642163421979	1.531916892044468e-07	9.692277669262262e-08	-1.550752398818504e-06	7.928876956108387e-07	1.032782970438786e-07	2.168297087220419e-07	-1.11730157783333e-06
1.52	-0.1412040351309931	0.04719403676382776	0.8583801589739334	0.744618008419194	-0.2398429721602527	-0.1183472777773542	-0.2739989446189169	0.6874323208525994	0.6874323208526231	0.06916947694025298	0.1745283592577919	0.2503255606640997	0.03968594490245894	0.335906831068001	0.1618145240619383	0.4007914287191299	-1.773995342567329	0.03969326025974203	-0.4118980148412782	0.7277438658148974	-1.982674052886177	-1.982674052886321	0.1930489013493041	1.311693517070961e-05	-0.6349587733721981	-0.113453097588868	-0.07931704540479172	-0.02268798586695661	0.0105244231851351	-0.327260283232938	0.07110407322769985	-0.01383570662217473	0.1284630514216235	-32.05816300062793	-18.18120839942823	-5.024407413261663	-3.499677077522549	1.50797295449953	-647.5294761083352	57.47006611225218	0.1137168189510778	0.3274307114055927	-0.6516379632860865	-0.5598474998900561	0.1028239292496459	-0.3042973474372045	1.21785169260652	-0.8093353068040009	-0.8093353068040031	0.5228365561062192	-0.02887052888387238	-0.4477461997893306	0.07148146115011961	1.609180693768709e-07	9.482417409794861e-08	-1.6455661747014e-06	8.044932567127533e-07	1.149162884206229e-07	2.149141161769261e-07	-1.170141528895549e-06
1.53	-0.1378397079212196	0.04882830286565291	0.8623546723454795	0.7268522475454634	-0.2394416646939948	-0.1224820705409237	-0.2666618216074827	0.6675678561786135	0.6675678561786282	0.07112706819441758	0.1745286268245243	0.2439542688864292	0.03855413265495556	0.3369094464074698	0.1650096657572681	0.3940312569653328	-1.778905897460916	0.04056353614315909	-0.4150310378797055	0.7395597279354377	-1.989925948109605	-1.989925948109742	0.1984645376511489	3.634018225580837e-05	-0.6392012446113235	-0.1128929237881215	-0.07296792276195004	-0.02490738417278112	0.009944392678764569	-0.3238497803386884	0.07480207439730251	-0.01485282817039938	0.1226686873722438	-33.15602467792847	-16.85265101266096	-5.114369056492245	-3.621436464441396	1.072631790393481	-643.9264952174898	57.57452973838166	0.08616705780274356	0.3112303794903679	-0.7001692497064125	-0.4190098960673687	0.0783829477429097	-0.3131561986127809	1.145302191309959	-0.6392109028483127	-0.6392109028473485	0.5499811646833436	0.01744077422019561	-0.3977093262746753	0.05055914237273248	1.679500650001078e-07	8.503603796596338e-08	-1.746049660672007e-06	7.914169674780354e-07	1.347147279018296e-07	1.916055214580288e-07	-1.215725031759891e-06
1.54	-0.1344668279247797	0.05049365528061011	0.8662591915058317	0.7090449110404021	-0.2390318037629318	-0.1266472638181911	-0.2592101702309367	0.6476396536978472	0.6476396536978515	0.07313862661109438	0.1745290310282681	0.2375435100483074	0.03742837690602682	0.3376173884012566	0.1680317866883474	0.3867925864803373	-1.782310468833477	0.04140395322078313	-0.4179781175808243	0.7506495388372647	-1.995421614242481	-1.995421614242612	0.2038423338513822	4.044433796073996e-05	-0.6428521854624698	-0.1122417978739419	-0.06661880011910794	-0.02712678247860518	0.009364362172381929	-0.3204392774444383	0.07850007556690526	-0.01586994971862314	0.1168743233228646	-34.21834875211171	-15.53204342104982	-5.202564250219724	-3.747085506790484	0.6378259224256712	-640.455142350281	57.74358097622248	0.05478214981466994	0.2928265585554926	-0.7473377095257693	-0.2586507956847746	0.09685216809104112	-0.2671086799754969	1.072641448863888	-0.458089488693729	-0.4580894886937206	0.5152685357839115	-0.03269434715990636	-0.3294401221934785	0.08967188383674662	1.752450226753315e-07	7.847592497047201e-08	-1.842373503224128e-06	7.876421615095491e-07	1.503561700616753e-07	1.779067875736234e-07	-1.261127601390172e-06
